<mxfile host="app.diagrams.net" modified="2020-08-06T20:07:44.275Z" agent="5.0 (Windows)" etag="gjIGgZdqq_qvp3UkTwsG" version="13.6.0" type="github">
  <diagram id="-ccd-eS1vYm8EQQXyc9x" name="Page-1">
    <mxGraphModel dx="1038" dy="1744" grid="1" gridSize="10" guides="1" tooltips="1" connect="1" arrows="1" fold="1" page="1" pageScale="1" pageWidth="827" pageHeight="1169" math="0" shadow="0">
      <root>
        <mxCell id="0" />
        <mxCell id="1" parent="0" />
        <mxCell id="dxjjk5VybI-RDGXXJQCJ-1" value="Artículo" style="swimlane;fontStyle=1;childLayout=stackLayout;horizontal=1;startSize=26;fillColor=none;horizontalStack=0;resizeParent=1;resizeParentMax=0;resizeLast=0;collapsible=1;marginBottom=0;" vertex="1" parent="1">
          <mxGeometry x="40" y="20" width="140" height="286" as="geometry" />
        </mxCell>
        <mxCell id="dxjjk5VybI-RDGXXJQCJ-2" value="ID artículo" style="text;strokeColor=none;fillColor=none;align=left;verticalAlign=top;spacingLeft=4;spacingRight=4;overflow=hidden;rotatable=0;points=[[0,0.5],[1,0.5]];portConstraint=eastwest;fontStyle=1" vertex="1" parent="dxjjk5VybI-RDGXXJQCJ-1">
          <mxGeometry y="26" width="140" height="26" as="geometry" />
        </mxCell>
        <mxCell id="dxjjk5VybI-RDGXXJQCJ-5" value="ID categoría" style="text;strokeColor=none;fillColor=none;align=left;verticalAlign=top;spacingLeft=4;spacingRight=4;overflow=hidden;rotatable=0;points=[[0,0.5],[1,0.5]];portConstraint=eastwest;fontStyle=1" vertex="1" parent="dxjjk5VybI-RDGXXJQCJ-1">
          <mxGeometry y="52" width="140" height="26" as="geometry" />
        </mxCell>
        <mxCell id="dxjjk5VybI-RDGXXJQCJ-3" value="Nombre" style="text;strokeColor=none;fillColor=none;align=left;verticalAlign=top;spacingLeft=4;spacingRight=4;overflow=hidden;rotatable=0;points=[[0,0.5],[1,0.5]];portConstraint=eastwest;" vertex="1" parent="dxjjk5VybI-RDGXXJQCJ-1">
          <mxGeometry y="78" width="140" height="26" as="geometry" />
        </mxCell>
        <mxCell id="dxjjk5VybI-RDGXXJQCJ-4" value="Descripción" style="text;strokeColor=none;fillColor=none;align=left;verticalAlign=top;spacingLeft=4;spacingRight=4;overflow=hidden;rotatable=0;points=[[0,0.5],[1,0.5]];portConstraint=eastwest;" vertex="1" parent="dxjjk5VybI-RDGXXJQCJ-1">
          <mxGeometry y="104" width="140" height="26" as="geometry" />
        </mxCell>
        <mxCell id="dxjjk5VybI-RDGXXJQCJ-6" value="Precio" style="text;strokeColor=none;fillColor=none;align=left;verticalAlign=top;spacingLeft=4;spacingRight=4;overflow=hidden;rotatable=0;points=[[0,0.5],[1,0.5]];portConstraint=eastwest;" vertex="1" parent="dxjjk5VybI-RDGXXJQCJ-1">
          <mxGeometry y="130" width="140" height="26" as="geometry" />
        </mxCell>
        <mxCell id="dxjjk5VybI-RDGXXJQCJ-7" value="Cantidad de comprados" style="text;strokeColor=none;fillColor=none;align=left;verticalAlign=top;spacingLeft=4;spacingRight=4;overflow=hidden;rotatable=0;points=[[0,0.5],[1,0.5]];portConstraint=eastwest;" vertex="1" parent="dxjjk5VybI-RDGXXJQCJ-1">
          <mxGeometry y="156" width="140" height="26" as="geometry" />
        </mxCell>
        <mxCell id="dxjjk5VybI-RDGXXJQCJ-8" value="Imágenes" style="text;strokeColor=none;fillColor=none;align=left;verticalAlign=top;spacingLeft=4;spacingRight=4;overflow=hidden;rotatable=0;points=[[0,0.5],[1,0.5]];portConstraint=eastwest;" vertex="1" parent="dxjjk5VybI-RDGXXJQCJ-1">
          <mxGeometry y="182" width="140" height="26" as="geometry" />
        </mxCell>
        <mxCell id="dxjjk5VybI-RDGXXJQCJ-9" value="Productos relacionados" style="text;strokeColor=none;fillColor=none;align=left;verticalAlign=top;spacingLeft=4;spacingRight=4;overflow=hidden;rotatable=0;points=[[0,0.5],[1,0.5]];portConstraint=eastwest;" vertex="1" parent="dxjjk5VybI-RDGXXJQCJ-1">
          <mxGeometry y="208" width="140" height="26" as="geometry" />
        </mxCell>
        <mxCell id="dxjjk5VybI-RDGXXJQCJ-10" value="Puntuación" style="text;strokeColor=none;fillColor=none;align=left;verticalAlign=top;spacingLeft=4;spacingRight=4;overflow=hidden;rotatable=0;points=[[0,0.5],[1,0.5]];portConstraint=eastwest;" vertex="1" parent="dxjjk5VybI-RDGXXJQCJ-1">
          <mxGeometry y="234" width="140" height="26" as="geometry" />
        </mxCell>
        <mxCell id="dxjjk5VybI-RDGXXJQCJ-11" value="Comentarios" style="text;strokeColor=none;fillColor=none;align=left;verticalAlign=top;spacingLeft=4;spacingRight=4;overflow=hidden;rotatable=0;points=[[0,0.5],[1,0.5]];portConstraint=eastwest;" vertex="1" parent="dxjjk5VybI-RDGXXJQCJ-1">
          <mxGeometry y="260" width="140" height="26" as="geometry" />
        </mxCell>
        <mxCell id="dxjjk5VybI-RDGXXJQCJ-59" style="edgeStyle=orthogonalEdgeStyle;rounded=0;orthogonalLoop=1;jettySize=auto;html=1;exitX=0;exitY=0;exitDx=0;exitDy=0;entryX=1;entryY=0;entryDx=0;entryDy=0;" edge="1" parent="1" source="dxjjk5VybI-RDGXXJQCJ-12" target="dxjjk5VybI-RDGXXJQCJ-1">
          <mxGeometry relative="1" as="geometry" />
        </mxCell>
        <mxCell id="dxjjk5VybI-RDGXXJQCJ-61" style="edgeStyle=orthogonalEdgeStyle;rounded=0;orthogonalLoop=1;jettySize=auto;html=1;exitX=1;exitY=0.25;exitDx=0;exitDy=0;startArrow=none;startFill=0;strokeColor=#000000;" edge="1" parent="1" source="dxjjk5VybI-RDGXXJQCJ-12" target="dxjjk5VybI-RDGXXJQCJ-23">
          <mxGeometry relative="1" as="geometry" />
        </mxCell>
        <mxCell id="dxjjk5VybI-RDGXXJQCJ-65" style="edgeStyle=orthogonalEdgeStyle;rounded=0;orthogonalLoop=1;jettySize=auto;html=1;exitX=0.75;exitY=0;exitDx=0;exitDy=0;entryX=-0.007;entryY=0.088;entryDx=0;entryDy=0;entryPerimeter=0;startArrow=none;startFill=0;endArrow=classic;endFill=1;strokeColor=#000000;" edge="1" parent="1" source="dxjjk5VybI-RDGXXJQCJ-12" target="dxjjk5VybI-RDGXXJQCJ-41">
          <mxGeometry relative="1" as="geometry" />
        </mxCell>
        <mxCell id="dxjjk5VybI-RDGXXJQCJ-12" value="Usuario" style="swimlane;fontStyle=1;childLayout=stackLayout;horizontal=1;startSize=26;fillColor=none;horizontalStack=0;resizeParent=1;resizeParentMax=0;resizeLast=0;collapsible=1;marginBottom=0;" vertex="1" parent="1">
          <mxGeometry x="290" y="20" width="140" height="102" as="geometry" />
        </mxCell>
        <mxCell id="dxjjk5VybI-RDGXXJQCJ-13" value="ID usuario" style="text;strokeColor=none;fillColor=none;align=left;verticalAlign=top;spacingLeft=4;spacingRight=4;overflow=hidden;rotatable=0;points=[[0,0.5],[1,0.5]];portConstraint=eastwest;fontStyle=1" vertex="1" parent="dxjjk5VybI-RDGXXJQCJ-12">
          <mxGeometry y="26" width="140" height="26" as="geometry" />
        </mxCell>
        <mxCell id="dxjjk5VybI-RDGXXJQCJ-15" value="Nombre completo" style="text;strokeColor=none;fillColor=none;align=left;verticalAlign=top;spacingLeft=4;spacingRight=4;overflow=hidden;rotatable=0;points=[[0,0.5],[1,0.5]];portConstraint=eastwest;" vertex="1" parent="dxjjk5VybI-RDGXXJQCJ-12">
          <mxGeometry y="52" width="140" height="26" as="geometry" />
        </mxCell>
        <mxCell id="dxjjk5VybI-RDGXXJQCJ-16" value="Apellidos" style="text;strokeColor=none;fillColor=none;align=left;verticalAlign=top;spacingLeft=4;spacingRight=4;overflow=hidden;rotatable=0;points=[[0,0.5],[1,0.5]];portConstraint=eastwest;" vertex="1" parent="dxjjk5VybI-RDGXXJQCJ-12">
          <mxGeometry y="78" width="140" height="24" as="geometry" />
        </mxCell>
        <mxCell id="dxjjk5VybI-RDGXXJQCJ-57" value="Selecciona" style="html=1;" vertex="1" parent="1">
          <mxGeometry x="190" y="10" width="90" height="20" as="geometry" />
        </mxCell>
        <mxCell id="dxjjk5VybI-RDGXXJQCJ-60" style="edgeStyle=orthogonalEdgeStyle;rounded=0;orthogonalLoop=1;jettySize=auto;html=1;entryX=0;entryY=0;entryDx=0;entryDy=0;startArrow=openThin;startFill=0;endArrow=none;endFill=0;" edge="1" parent="1" source="dxjjk5VybI-RDGXXJQCJ-11" target="dxjjk5VybI-RDGXXJQCJ-23">
          <mxGeometry relative="1" as="geometry" />
        </mxCell>
        <mxCell id="dxjjk5VybI-RDGXXJQCJ-23" value="Compra" style="swimlane;fontStyle=1;childLayout=stackLayout;horizontal=1;startSize=26;fillColor=none;horizontalStack=0;resizeParent=1;resizeParentMax=0;resizeLast=0;collapsible=1;marginBottom=0;" vertex="1" parent="1">
          <mxGeometry x="414" y="200" width="140" height="260" as="geometry" />
        </mxCell>
        <mxCell id="dxjjk5VybI-RDGXXJQCJ-24" value="ID compra" style="text;strokeColor=none;fillColor=none;align=left;verticalAlign=top;spacingLeft=4;spacingRight=4;overflow=hidden;rotatable=0;points=[[0,0.5],[1,0.5]];portConstraint=eastwest;fontStyle=1" vertex="1" parent="dxjjk5VybI-RDGXXJQCJ-23">
          <mxGeometry y="26" width="140" height="26" as="geometry" />
        </mxCell>
        <mxCell id="dxjjk5VybI-RDGXXJQCJ-34" value="ID artículo" style="text;strokeColor=none;fillColor=none;align=left;verticalAlign=top;spacingLeft=4;spacingRight=4;overflow=hidden;rotatable=0;points=[[0,0.5],[1,0.5]];portConstraint=eastwest;fontStyle=1" vertex="1" parent="dxjjk5VybI-RDGXXJQCJ-23">
          <mxGeometry y="52" width="140" height="26" as="geometry" />
        </mxCell>
        <mxCell id="dxjjk5VybI-RDGXXJQCJ-25" value="ID usuario" style="text;strokeColor=none;fillColor=none;align=left;verticalAlign=top;spacingLeft=4;spacingRight=4;overflow=hidden;rotatable=0;points=[[0,0.5],[1,0.5]];portConstraint=eastwest;fontStyle=1" vertex="1" parent="dxjjk5VybI-RDGXXJQCJ-23">
          <mxGeometry y="78" width="140" height="26" as="geometry" />
        </mxCell>
        <mxCell id="dxjjk5VybI-RDGXXJQCJ-26" value="Cantidad de cada artículo" style="text;strokeColor=none;fillColor=none;align=left;verticalAlign=top;spacingLeft=4;spacingRight=4;overflow=hidden;rotatable=0;points=[[0,0.5],[1,0.5]];portConstraint=eastwest;" vertex="1" parent="dxjjk5VybI-RDGXXJQCJ-23">
          <mxGeometry y="104" width="140" height="26" as="geometry" />
        </mxCell>
        <mxCell id="dxjjk5VybI-RDGXXJQCJ-27" value="Costo total por unidad" style="text;strokeColor=none;fillColor=none;align=left;verticalAlign=top;spacingLeft=4;spacingRight=4;overflow=hidden;rotatable=0;points=[[0,0.5],[1,0.5]];portConstraint=eastwest;" vertex="1" parent="dxjjk5VybI-RDGXXJQCJ-23">
          <mxGeometry y="130" width="140" height="26" as="geometry" />
        </mxCell>
        <mxCell id="dxjjk5VybI-RDGXXJQCJ-28" value="Subtotal" style="text;strokeColor=none;fillColor=none;align=left;verticalAlign=top;spacingLeft=4;spacingRight=4;overflow=hidden;rotatable=0;points=[[0,0.5],[1,0.5]];portConstraint=eastwest;" vertex="1" parent="dxjjk5VybI-RDGXXJQCJ-23">
          <mxGeometry y="156" width="140" height="26" as="geometry" />
        </mxCell>
        <mxCell id="dxjjk5VybI-RDGXXJQCJ-29" value="Costo de envío" style="text;strokeColor=none;fillColor=none;align=left;verticalAlign=top;spacingLeft=4;spacingRight=4;overflow=hidden;rotatable=0;points=[[0,0.5],[1,0.5]];portConstraint=eastwest;" vertex="1" parent="dxjjk5VybI-RDGXXJQCJ-23">
          <mxGeometry y="182" width="140" height="26" as="geometry" />
        </mxCell>
        <mxCell id="dxjjk5VybI-RDGXXJQCJ-30" value="Costo total" style="text;strokeColor=none;fillColor=none;align=left;verticalAlign=top;spacingLeft=4;spacingRight=4;overflow=hidden;rotatable=0;points=[[0,0.5],[1,0.5]];portConstraint=eastwest;" vertex="1" parent="dxjjk5VybI-RDGXXJQCJ-23">
          <mxGeometry y="208" width="140" height="26" as="geometry" />
        </mxCell>
        <mxCell id="dxjjk5VybI-RDGXXJQCJ-40" value="Forma de pago" style="text;strokeColor=none;fillColor=none;align=left;verticalAlign=top;spacingLeft=4;spacingRight=4;overflow=hidden;rotatable=0;points=[[0,0.5],[1,0.5]];portConstraint=eastwest;" vertex="1" parent="dxjjk5VybI-RDGXXJQCJ-23">
          <mxGeometry y="234" width="140" height="26" as="geometry" />
        </mxCell>
        <mxCell id="dxjjk5VybI-RDGXXJQCJ-62" value="Realiza" style="html=1;" vertex="1" parent="1">
          <mxGeometry x="490" y="70" width="90" height="20" as="geometry" />
        </mxCell>
        <mxCell id="dxjjk5VybI-RDGXXJQCJ-63" value="Contiene" style="html=1;" vertex="1" parent="1">
          <mxGeometry x="310" y="190" width="90" height="20" as="geometry" />
        </mxCell>
        <mxCell id="dxjjk5VybI-RDGXXJQCJ-41" value="Envío" style="swimlane;fontStyle=1;childLayout=stackLayout;horizontal=1;startSize=26;fillColor=none;horizontalStack=0;resizeParent=1;resizeParentMax=0;resizeLast=0;collapsible=1;marginBottom=0;" vertex="1" parent="1">
          <mxGeometry x="630" y="-30" width="140" height="182" as="geometry" />
        </mxCell>
        <mxCell id="dxjjk5VybI-RDGXXJQCJ-42" value="ID envío" style="text;strokeColor=none;fillColor=none;align=left;verticalAlign=top;spacingLeft=4;spacingRight=4;overflow=hidden;rotatable=0;points=[[0,0.5],[1,0.5]];portConstraint=eastwest;fontStyle=1" vertex="1" parent="dxjjk5VybI-RDGXXJQCJ-41">
          <mxGeometry y="26" width="140" height="26" as="geometry" />
        </mxCell>
        <mxCell id="dxjjk5VybI-RDGXXJQCJ-64" value="ID usuario" style="text;strokeColor=none;fillColor=none;align=left;verticalAlign=top;spacingLeft=4;spacingRight=4;overflow=hidden;rotatable=0;points=[[0,0.5],[1,0.5]];portConstraint=eastwest;fontStyle=1" vertex="1" parent="dxjjk5VybI-RDGXXJQCJ-41">
          <mxGeometry y="52" width="140" height="26" as="geometry" />
        </mxCell>
        <mxCell id="dxjjk5VybI-RDGXXJQCJ-51" value="ID compra" style="text;strokeColor=none;fillColor=none;align=left;verticalAlign=top;spacingLeft=4;spacingRight=4;overflow=hidden;rotatable=0;points=[[0,0.5],[1,0.5]];portConstraint=eastwest;fontStyle=1" vertex="1" parent="dxjjk5VybI-RDGXXJQCJ-41">
          <mxGeometry y="78" width="140" height="26" as="geometry" />
        </mxCell>
        <mxCell id="dxjjk5VybI-RDGXXJQCJ-45" value="Premium" style="text;strokeColor=none;fillColor=none;align=left;verticalAlign=top;spacingLeft=4;spacingRight=4;overflow=hidden;rotatable=0;points=[[0,0.5],[1,0.5]];portConstraint=eastwest;" vertex="1" parent="dxjjk5VybI-RDGXXJQCJ-41">
          <mxGeometry y="104" width="140" height="26" as="geometry" />
        </mxCell>
        <mxCell id="dxjjk5VybI-RDGXXJQCJ-52" value="Express" style="text;strokeColor=none;fillColor=none;align=left;verticalAlign=top;spacingLeft=4;spacingRight=4;overflow=hidden;rotatable=0;points=[[0,0.5],[1,0.5]];portConstraint=eastwest;" vertex="1" parent="dxjjk5VybI-RDGXXJQCJ-41">
          <mxGeometry y="130" width="140" height="26" as="geometry" />
        </mxCell>
        <mxCell id="dxjjk5VybI-RDGXXJQCJ-46" value="Standard" style="text;strokeColor=none;fillColor=none;align=left;verticalAlign=top;spacingLeft=4;spacingRight=4;overflow=hidden;rotatable=0;points=[[0,0.5],[1,0.5]];portConstraint=eastwest;" vertex="1" parent="dxjjk5VybI-RDGXXJQCJ-41">
          <mxGeometry y="156" width="140" height="26" as="geometry" />
        </mxCell>
        <mxCell id="dxjjk5VybI-RDGXXJQCJ-66" value="Pide" style="html=1;" vertex="1" parent="1">
          <mxGeometry x="464" y="-40" width="90" height="20" as="geometry" />
        </mxCell>
        <mxCell id="dxjjk5VybI-RDGXXJQCJ-67" style="edgeStyle=orthogonalEdgeStyle;rounded=0;orthogonalLoop=1;jettySize=auto;html=1;exitX=1;exitY=0.5;exitDx=0;exitDy=0;startArrow=classic;startFill=1;endArrow=classic;endFill=1;strokeColor=#000000;" edge="1" parent="1" source="dxjjk5VybI-RDGXXJQCJ-27" target="dxjjk5VybI-RDGXXJQCJ-46">
          <mxGeometry relative="1" as="geometry" />
        </mxCell>
      </root>
    </mxGraphModel>
  </diagram>
</mxfile>
